<svg width="482" height="564" viewBox="0 0 482 564" fill="none" xmlns="http://www.w3.org/2000/svg">
<path d="M239.151 391.355C233.35 380.486 234.584 368.05 242.265 359.573C250.308 350.765 262.548 347.954 272 352.789C273.801 353.72 274.09 355.68 273.437 357.2C272.816 358.587 271.404 359.781 269.537 359.114C261.693 356.563 253.458 358.745 247.778 364.773C241.819 371.082 241.166 380.581 245.934 388.817C250.253 396.314 257.479 400.813 266.237 401.349C276.644 402.008 287.622 396.928 294.182 388.456C306.941 371.844 305.093 344.306 290.359 330.76C276.984 318.524 255.803 320.686 241.718 327.875C220.098 338.957 207.694 361.534 196.806 383.644L196.741 383.908C195.791 385.495 193.83 385.785 192.31 385.132C190.84 384.562 189.729 383.101 190.397 381.234C190.511 381.053 190.495 380.838 190.609 380.657L190.591 380.442C204.836 340.678 210.136 303.413 206.166 269.406C203.992 250.606 198.671 232.365 190.888 216.741C181.974 198.881 170.222 184.875 155.885 175.135C138.305 163.2 119.312 159.878 102.616 165.728C101.694 166.061 100.866 165.439 100.55 164.732C100.234 164.024 100.329 163.067 101.284 162.601C116.587 155.011 133.971 156.05 151.673 165.775C165.987 173.619 179.828 186.807 189.769 201.91C200.258 217.917 207.593 236.51 211.523 257.28C215.083 276.138 215.761 296.182 213.607 316.93C212.386 328.459 210.422 339.877 207.616 351.017C216.235 338.151 226.559 326.612 240.877 320.18C250.786 315.748 261.81 313.898 271.874 315.104C283.159 316.467 292.579 321.434 299.143 329.481C300.436 331.057 301.514 332.652 302.56 334.377C314.118 353.445 311.498 381.219 295.85 396.773C287.229 405.37 274.5 409.602 262.62 407.811C252.356 406.278 243.988 400.449 239.151 391.355Z" fill="#5D8DE2"/>
<path d="M260.077 422.726C252.067 423.424 243.19 418.24 237.512 413.14C230.808 407.089 226.703 399.575 226.027 391.78C225.908 390.841 226.448 390.064 227.42 389.812C228.31 389.61 229.548 389.984 229.981 391.069C232.868 398.985 236.519 404.638 241.485 408.934C246.55 413.394 251.931 414.852 258.073 416.636C258.997 416.863 259.839 417.139 260.764 417.365C261.474 417.609 262.019 417.953 262.368 418.528C262.667 419.021 262.752 419.531 262.672 420.142C262.512 421.363 261.66 422.554 260.077 422.726Z" fill="#5D8DE2"/>
<mask id="mask0_204_165" style="mask-type:luminance" maskUnits="userSpaceOnUse" x="164" y="137" width="85" height="120">
<path d="M164.199 148.99L229.324 256.435L248.662 244.714L183.537 137.269L164.199 148.99Z" fill="white"/>
</mask>
<g mask="url(#mask0_204_165)">
<path d="M227.999 254.036C227.173 249.704 226.593 245.223 226.114 240.907C225.429 235.14 224.678 229.077 223.219 223.33C220.67 213.187 216.688 203.464 211.454 194.274C200.756 175.696 185.47 160.124 167.071 149.249C166.393 148.873 166.424 148.181 166.653 147.816C166.915 147.321 167.49 146.972 168.168 147.348C187.4 156.257 204.35 171.607 215.858 190.593C216.007 190.839 216.207 191.168 216.356 191.415C222.003 200.916 226.367 211.084 229.215 221.72C231.511 230.33 234.401 243.076 231.842 254.068C231.665 255.074 230.661 255.458 229.885 255.478C228.797 255.351 228.151 254.843 227.999 254.036Z" fill="#5D8DE2"/>
</g>
</svg>
