<svg width="375" height="323" viewBox="0 0 375 323" fill="none" xmlns="http://www.w3.org/2000/svg">
<g clip-path="url(#clip0_202_107)">
<path d="M155.989 280.608L160.084 267.267C155.156 261.843 148.979 257.703 142.088 255.209C148.82 266.363 142.297 280.915 145.015 293.657C145.894 297.625 147.653 301.344 150.164 304.539C152.675 307.734 155.873 310.323 159.52 312.114L165.735 319.816C168.994 314.123 170.979 307.79 171.555 301.255C172.131 294.72 171.283 288.138 169.07 281.963C167.795 278.51 166.09 275.232 163.995 272.206C160.302 276.549 155.989 280.608 155.989 280.608Z" fill="#F2F2F2"/>
<path d="M133.468 282.313L131.185 268.545C124.355 265.888 116.98 264.939 109.7 265.779C120.7 272.76 121.35 288.694 129.465 298.886C132.02 302.046 135.254 304.59 138.926 306.33C142.598 308.069 146.614 308.96 150.677 308.937L159.675 313.058C160.052 306.509 159.006 299.955 156.607 293.849C154.208 287.744 150.515 282.231 145.78 277.69C143.099 275.169 140.111 272.996 136.887 271.221C135.518 276.756 133.468 282.313 133.468 282.313Z" fill="#F2F2F2"/>
<path d="M267.518 316.392L261.209 316.392L258.208 292.055L267.519 292.055L267.518 316.392Z" fill="#FFB6B6"/>
<path d="M269.127 322.509L248.785 322.508V322.25C248.785 320.15 249.619 318.136 251.104 316.651C252.589 315.166 254.603 314.332 256.702 314.332H256.703L260.419 311.512L267.352 314.332L269.127 314.332L269.127 322.509Z" fill="#2F2E41"/>
<path d="M369.429 293.378L365.128 297.993L345.28 283.596L351.629 276.784L369.429 293.378Z" fill="#FFB6B6"/>
<path d="M375 296.371L361.13 311.253L360.942 311.078C359.406 309.646 358.501 307.662 358.428 305.563C358.354 303.465 359.116 301.422 360.548 299.886L361.02 295.245L367.809 292.095L369.02 290.796L375 296.371Z" fill="#2F2E41"/>
<path d="M360.094 279.7L353.426 293.648L312.478 266.533L306.521 258.415L286.989 231.799L279.05 244.399L273.525 257.571C271.724 258.745 270.207 260.305 269.083 262.138C267.959 263.97 267.255 266.029 267.024 268.167L266.771 270.499L270.262 301.886L256.993 305.961L249.373 263.796L251.864 254.659L254.428 241.834L267.341 201.306H301.895L321.714 243.497L323.163 252.094L328.782 258.544L360.094 279.7Z" fill="#2F2E41"/>
<path d="M288.284 134.998L294.101 139.428L301.116 141.584C301.116 141.584 304.016 182.383 306.629 184.997C309.243 187.61 306.886 187.68 307.411 191.075C307.936 194.47 309.212 201.43 309.212 201.43C291.574 210.768 276.367 211.019 264.153 200.091C263.997 199.415 264.076 198.706 264.378 198.082C264.68 197.457 265.186 196.954 265.813 196.657C268.086 195.451 263.717 189.82 265.575 188.878C267.433 187.937 264.82 179.77 264.82 179.77L266.534 162.73L265.18 160.006L268.485 143.339L274.219 141.244L276.51 135.724L288.284 134.998Z" fill="#3F3D56"/>
<path d="M291.928 207.512C291.902 206.775 292.038 206.042 292.326 205.363C292.614 204.684 293.048 204.077 293.596 203.584C294.144 203.091 294.793 202.724 295.498 202.509C296.204 202.295 296.947 202.237 297.677 202.341L305.875 186.405L310.442 194.52L301.957 208.409C301.702 209.624 301.01 210.703 300.012 211.441C299.014 212.18 297.78 212.526 296.544 212.416C295.308 212.305 294.155 211.745 293.305 210.841C292.454 209.937 291.964 208.753 291.928 207.512Z" fill="#FFB6B6"/>
<path d="M305.734 203.614L323.317 176.359L323.259 176.233C323.192 176.089 319.211 167.489 315.353 159.612C314.759 158.399 314.167 157.203 313.594 156.057C313.346 155.563 313.103 155.079 312.862 154.605C311.242 151.41 309.826 148.77 308.981 147.515C307.112 144.679 304.329 142.568 301.095 141.532L301.013 141.511L300.936 141.543C299.354 142.211 298.046 143.398 297.229 144.908C296.412 146.419 296.134 148.163 296.441 149.853C297.966 158.003 301.364 165.688 306.368 172.3L309.218 176.057L299.312 197.596L305.734 203.614Z" fill="#3F3D56"/>
<path d="M245.272 99.1407C245.756 99.6967 246.112 100.352 246.316 101.061C246.519 101.769 246.565 102.514 246.45 103.242C246.334 103.97 246.061 104.664 245.648 105.275C245.236 105.886 244.694 106.399 244.062 106.778L247.727 124.321L239.069 120.893L236.916 104.76C236.35 103.655 236.208 102.381 236.518 101.179C236.828 99.9773 237.569 98.9309 238.599 98.2383C239.628 97.5457 240.877 97.255 242.107 97.4213C243.337 97.5877 244.463 98.1994 245.272 99.1407Z" fill="#FFB6B6"/>
<path d="M237.002 110.864L240.503 143.11L240.627 143.171C240.729 143.221 245.165 145.397 250.609 147.988C251.528 148.425 251.396 150.319 252.356 150.772C253.017 151.083 254.764 149.952 255.432 150.265C261.383 153.048 267.401 155.755 269.799 156.488C273.037 157.514 276.528 157.402 279.693 156.17L279.769 156.135L279.809 156.06C280.618 154.545 280.886 152.8 280.57 151.112C280.254 149.424 279.372 147.894 278.069 146.775C271.753 141.403 264.275 137.574 256.225 135.589L251.645 134.465L245.779 111.494L237.002 110.864Z" fill="#3F3D56"/>
<path d="M282.083 133.171C288.437 133.171 293.588 128.019 293.588 121.664C293.588 115.309 288.437 110.157 282.083 110.157C275.728 110.157 270.577 115.309 270.577 121.664C270.577 128.019 275.728 133.171 282.083 133.171Z" fill="#FFB6B6"/>
<path d="M270.659 113.953C271.606 111.2 276.316 109.29 283.952 109.025C291.588 108.759 293.524 117.759 293.524 117.759C298.622 121.895 288.081 132.968 287.571 132.569L287.801 130.488C288.18 127.043 289.794 124.354 287.742 120.763L285.772 120.786C283.227 121.275 280.683 121.764 278.138 122.254L281.151 119.601L281.066 119.47C279.784 120.137 278.39 120.56 276.953 120.718C275.334 120.813 273.564 120.169 272.789 118.744C272.582 118.353 272.455 117.924 272.417 117.482C270.233 118.355 269.235 121.047 269.235 121.047C269.235 121.047 269.713 116.706 270.659 113.953Z" fill="#2F2E41"/>
<path d="M46.3563 114.643C46.2002 114.445 46.0321 114.257 45.8529 114.08C45.8967 114.02 45.9405 113.954 45.9843 113.894L46.3563 114.643Z" fill="#2F2E41"/>
<path d="M48.594 160.925C46.7119 164.269 42.9532 166.135 39.2273 167.048C35.0423 168.145 30.6353 168.059 26.4958 166.802C25.9706 166.632 25.4454 166.435 24.9365 166.217C25.1812 165.567 25.3751 164.899 25.5165 164.219C25.7069 163.3 25.8023 162.363 25.801 161.423C25.3864 162.232 24.8494 162.972 24.2089 163.617C23.7148 164.137 23.1536 164.587 22.5402 164.958C20.6375 163.803 18.99 162.273 17.6982 160.46C17.7802 160.258 17.8623 160.055 17.9389 159.853C18.3362 158.795 18.6508 157.709 18.8799 156.602C19.1908 155.107 19.3466 153.583 19.345 152.055C18.6704 153.372 17.7955 154.575 16.7516 155.623C16.4386 155.958 16.1062 156.274 15.7559 156.57C15.2134 154.922 15.0037 153.183 15.139 151.454C15.2742 149.724 15.7517 148.039 16.5437 146.496C18.7103 142.49 22.9122 140.11 26.6545 137.522C30.4023 134.933 34.1501 131.431 34.4674 126.884C34.6807 123.814 33.2582 120.739 33.8272 117.719C34.0665 116.445 34.6508 115.261 35.5163 114.297C36.3818 113.332 37.4953 112.624 38.7356 112.248C39.976 111.873 41.2955 111.845 42.5505 112.168C43.8055 112.491 44.9477 113.152 45.8529 114.08C43.7301 117.089 41.6182 120.203 40.7592 123.782C39.8839 127.426 40.6006 131.7 43.473 134.113C44.4578 134.944 45.6669 135.535 46.4274 136.575C47.4396 137.954 47.4451 139.793 47.6092 141.489C47.9375 144.788 49.0153 147.962 49.5953 151.229C50.1807 154.49 50.2135 158.031 48.594 160.925Z" fill="#2F2E41"/>
<path d="M10.0121 296.621L15.0056 300.48L32.263 283.053L24.893 277.358L10.0121 296.621Z" fill="#A0616A"/>
<path d="M10.2245 292.851L18.4819 298.48L15.8687 301.862L19.3684 312.845C19.5413 313.388 19.5363 313.971 19.3542 314.51C19.1721 315.05 18.8223 315.517 18.3559 315.843C17.8896 316.17 17.3311 316.339 16.762 316.325C16.1929 316.312 15.643 316.117 15.1926 315.769L5.79534 308.507L6.76036 303.909L3.54314 306.766L0 304.028L10.2245 292.851Z" fill="#2F2E41"/>
<path d="M35.3456 124.365C35.3449 126.316 35.8231 128.238 36.7382 129.961C37.6534 131.684 38.9775 133.157 40.5944 134.249C42.2112 135.34 44.0714 136.019 46.0115 136.224C47.9517 136.429 49.9125 136.155 51.7219 135.425C53.5313 134.695 55.1339 133.532 56.389 132.039C57.6442 130.545 58.5135 128.766 58.9207 126.857C59.3278 124.949 59.2604 122.97 58.7243 121.094C58.1882 119.218 57.1998 117.502 55.8458 116.097L55.7887 116.04C55.6933 115.94 55.5979 115.84 55.4978 115.744L55.496 115.744L55.4944 115.743L55.4934 115.741L55.4931 115.739C55.3691 115.625 55.2451 115.511 55.1164 115.401C53.0187 113.56 50.0704 111.563 47.0621 111.563C40.4782 111.563 35.3456 117.78 35.3456 124.365Z" fill="#2F2E41"/>
<path d="M103.281 118.244C103.338 118.879 103.255 119.52 103.038 120.12C102.82 120.72 102.474 121.266 102.023 121.718C101.573 122.169 101.028 122.517 100.429 122.736C99.829 122.955 99.1888 123.039 98.5529 122.984L69.0391 149.635L63.9601 141.613L94.5683 117.938C94.7323 116.876 95.2802 115.91 96.1081 115.225C96.936 114.54 97.9864 114.183 99.0603 114.22C100.134 114.258 101.157 114.688 101.935 115.43C102.713 116.171 103.192 117.172 103.281 118.244Z" fill="#A0616A"/>
<path d="M56.4252 157.68C56.4252 157.68 57.5234 159.708 61.2744 156.576C64.2774 154.069 78.6646 143.183 81.7641 138.722C82.4719 139.002 83.2528 139.039 83.9839 138.827C84.7149 138.615 85.3546 138.165 85.8021 137.549L77.3097 130.111C74.7688 130.403 74.8233 132.111 75.0879 133.08L68.6819 135.983L52.1398 146.556L55.6054 156.228L56.4252 157.68Z" fill="#264B92"/>
<path d="M40.3998 176.368L39.7812 179.314L39.256 190.182L62.3815 191.453L61.6633 174.738L59.4218 171.055L40.3998 176.368Z" fill="#A0616A"/>
<path d="M50.2008 137.119C55.7206 137.119 60.1952 132.644 60.1952 127.123C60.1952 121.603 55.7206 117.127 50.2008 117.127C44.6811 117.127 40.2064 121.603 40.2064 127.123C40.2064 132.644 44.6811 137.119 50.2008 137.119Z" fill="#A0616A"/>
<path d="M32.4568 163.992L32.3954 155.683C32.394 152.694 33.4056 149.792 35.2651 147.451C37.1246 145.11 39.7224 143.469 42.6346 142.794L42.6723 142.785L44.6486 140.122L52.6778 140.926L54.1495 143.934L59.9675 147.399L62.2076 154.601C63.1792 155.248 64.0073 156.089 64.6403 157.07C65.2734 158.051 65.6979 159.152 65.8875 160.305C66.648 165.163 63.2468 170.024 62.8422 170.582L61.7997 176.454L39.1225 180.455L38.9384 180.479L32.4568 163.992Z" fill="#264B92"/>
<path d="M62.4308 125.341C61.265 126.08 60.0555 126.747 58.8088 127.338C57.5435 127.946 56.2201 128.425 54.8586 128.767C54.4691 127.912 53.9924 127.099 53.4361 126.342C53.5792 127.239 53.5829 128.153 53.447 129.051C51.1904 129.415 48.8791 129.226 46.712 128.498L44.8299 125.341L44.6876 128.865C43.1284 129.15 41.5745 129.418 40.0152 129.697C39.9222 129.708 39.8292 129.73 39.7417 129.746C38.7732 125.379 40.1465 120.57 43.1995 117.659C44.7153 116.228 46.6061 115.258 48.6518 114.861C50.6975 114.464 52.8139 114.656 54.7547 115.415C55.0009 115.513 55.2525 115.623 55.4933 115.738L55.4937 115.74L55.4948 115.742L55.4966 115.743L55.4987 115.743C55.641 115.814 55.7614 115.984 55.92 115.968C62.7481 115.207 62.967 120.504 62.4308 125.341Z" fill="#2F2E41"/>
<path d="M45.8042 283.732L50.8054 287.581L68.0279 270.119L60.6467 264.44L45.8042 283.732Z" fill="#A0616A"/>
<path d="M46.4625 280.31L54.7311 285.923L52.1248 289.31L55.6467 300.286C55.8207 300.828 55.8169 301.412 55.6358 301.951C55.4548 302.491 55.1059 302.959 54.6402 303.286C54.1746 303.614 53.6164 303.784 53.0473 303.771C52.4782 303.759 51.9279 303.565 51.4768 303.218L42.0649 295.975L43.0206 291.375L39.8092 294.239L36.2605 291.508L46.4625 280.31Z" fill="#2F2E41"/>
<path d="M29.5755 262.421L29.5753 262.356L31.9455 258.271L29.5252 252.953L29.4526 239.291L29.845 237.24C30.3726 234.482 30.2191 231.636 29.3977 228.951L29.3535 220.635C29.2684 218.552 32.4952 216.719 31.7427 214.983C24.6302 198.567 39.0058 186.044 39.1029 185.943L39.3967 185.638L40.9906 186.845L42.5076 186.847L62.9801 190.578L63.1279 190.854C63.9331 192.364 65.4871 197.571 65.5793 199.927C66.5996 201.108 78.2218 214.559 79.2549 215.493C86.2365 221.811 90.2337 232.268 91.9949 237.939C92.4324 239.341 92.5205 240.828 92.2518 242.271C91.983 243.715 91.3655 245.07 90.453 246.22L64.0228 275.174L56.9102 268.608L71.2113 242.544L70.1801 239.9C68.3297 239.558 66.6552 238.586 65.4421 237.147L62.5463 233.709C61.7445 232.76 61.235 231.599 61.0795 230.366L59.3233 230.154L53.0327 223.549L48.6683 263.078L47.4818 266.2L26.8186 290.496L18.0647 285.024L29.5755 262.421Z" fill="#2F2E41"/>
<path d="M26.4199 92.6894C26.0229 93.1892 25.7403 93.77 25.592 94.3909C25.4438 95.0118 25.4334 95.6576 25.5617 96.2829C25.69 96.9082 25.9538 97.4978 26.3346 98.0101C26.7154 98.5224 27.2038 98.945 27.7655 99.2481L21.1951 118.703L26.5602 139.319L35.2116 135.407L29.873 119.857L33.8671 97.222C34.3136 96.2444 34.3861 95.137 34.0709 94.1096C33.7556 93.0821 33.0744 92.2061 32.1564 91.6474C31.2385 91.0887 30.1475 90.8862 29.0902 91.0782C28.0329 91.2702 27.0828 91.8435 26.4199 92.6894Z" fill="#A0616A"/>
<path d="M34.3389 156.306C34.3389 156.306 32.307 157.397 30.8938 152.719C29.7625 148.974 22.0632 128.638 21.9245 123.208C21.1791 123.053 20.5063 122.655 20.0122 122.076C19.518 121.496 19.2305 120.769 19.1951 120.009L30.3773 118.461C32.3395 120.102 31.3561 121.498 30.6025 122.163L34.411 128.615L42.3716 146.033L35.8217 155.543L34.3389 156.306Z" fill="#264B92"/>
<path d="M40.0129 129.696C41.1613 126.232 43.2204 123.142 45.9743 120.748C48.7282 118.355 52.0753 116.746 55.6647 116.092C55.679 116.088 55.7267 116.068 55.7886 116.04C55.8268 116.016 55.8745 115.992 55.9221 115.968C55.7791 115.887 55.6408 115.816 55.4978 115.744L55.496 115.744L55.4944 115.743L55.4934 115.741L55.4931 115.739C55.3691 115.625 55.2451 115.511 55.1164 115.401L54.7541 115.415C54.7541 115.415 42.0201 113.398 40.0129 129.696Z" fill="#FD6584"/>
<path d="M204.328 241.083C205.717 238.994 204.895 236.004 202.49 234.404C200.086 232.804 197.01 233.2 195.62 235.29C194.23 237.379 195.053 240.369 197.458 241.969C199.862 243.569 202.938 243.173 204.328 241.083Z" fill="#F2F2F2"/>
<path d="M176.116 163.106C177.506 161.016 176.683 158.026 174.279 156.426C171.874 154.826 168.798 155.222 167.408 157.312C166.019 159.401 166.841 162.392 169.246 163.991C171.65 165.591 174.726 165.195 176.116 163.106Z" fill="#F2F2F2"/>
<path d="M294.093 283.151C295.482 281.061 294.66 278.071 292.255 276.471C289.851 274.871 286.775 275.267 285.385 277.357C283.995 279.446 284.818 282.436 287.222 284.036C289.627 285.636 292.703 285.24 294.093 283.151Z" fill="#F2F2F2"/>
<path d="M55.5745 32.2873C56.9643 30.1981 56.1417 27.2074 53.7372 25.6074C51.3327 24.0075 48.2568 24.4041 46.867 26.4934C45.4772 28.5826 46.2998 31.5733 48.7043 33.1732C51.1088 34.7732 54.1847 34.3765 55.5745 32.2873Z" fill="#F2F2F2"/>
<path d="M166.883 7.66267C168.273 5.57344 167.45 2.58278 165.046 0.982824C162.641 -0.617129 159.565 -0.220501 158.175 1.86873C156.786 3.95795 157.608 6.94865 160.013 8.5486C162.417 10.1486 165.493 9.7519 166.883 7.66267Z" fill="#F2F2F2"/>
<path d="M114.204 214.26C115.593 212.171 114.771 209.181 112.366 207.581C109.962 205.981 106.886 206.377 105.496 208.466C104.106 210.556 104.929 213.546 107.334 215.146C109.738 216.746 112.814 216.35 114.204 214.26Z" fill="#E6E6E6"/>
<path d="M343.808 323H10.2451C10.0834 323 9.92852 322.935 9.81437 322.821C9.70021 322.706 9.63611 322.551 9.63611 322.389C9.63611 322.228 9.70021 322.072 9.81437 321.958C9.92852 321.843 10.0834 321.779 10.2451 321.778H343.808C343.97 321.778 344.125 321.843 344.24 321.957C344.355 322.072 344.419 322.227 344.419 322.389C344.419 322.551 344.355 322.707 344.24 322.821C344.125 322.936 343.97 323 343.808 323Z" fill="#CCCCCC"/>
<path d="M72.3293 120.128C69.5234 120.12 66.8189 119.078 64.7329 117.201C62.6468 115.324 61.3255 112.744 61.0215 109.955L54.5095 49.467C54.1896 46.4638 55.0738 43.4563 56.9683 41.1043C58.8628 38.7523 61.6127 37.2479 64.6148 36.9213L257.97 16.0992C260.973 15.779 263.98 16.6633 266.332 18.558C268.684 20.4527 270.188 23.203 270.515 26.2056L277.027 86.693C277.347 89.6964 276.463 92.704 274.568 95.0561C272.674 97.4082 269.924 98.9126 266.921 99.2393L73.5658 120.061C73.1551 120.106 72.7423 120.128 72.3293 120.128Z" fill="#E6E6E6"/>
<path d="M255.841 18.9072C255.477 18.9073 255.114 18.9269 254.753 18.9658L68.3689 39.0372C67.0657 39.1775 65.8028 39.5732 64.6525 40.2017C63.5021 40.8302 62.4868 41.6791 61.6645 42.7C60.8422 43.7209 60.229 44.8938 59.8599 46.1517C59.4908 47.4096 59.3731 48.728 59.5134 50.0314L62.806 80.6145C63.3382 85.5587 64.8389 90.3496 67.2224 94.7137C69.6059 99.0777 72.8255 102.93 76.6974 106.049C80.5693 109.169 85.0177 111.495 89.7886 112.895C94.5594 114.296 99.5593 114.742 104.503 114.21L235.562 100.096C240.49 99.5655 245.266 98.0692 249.616 95.6926C253.966 93.316 257.806 90.1057 260.916 86.245C264.025 82.3843 266.344 77.9489 267.74 73.1919C269.136 68.4349 269.581 63.4495 269.05 58.5204L265.746 27.8225C265.482 25.3774 264.326 23.1154 262.498 21.4702C260.67 19.8251 258.3 18.9124 255.841 18.9072Z" fill="white"/>
<path d="M216.591 50.7355L112.418 61.9537C112.12 61.9862 111.819 61.9596 111.532 61.8755C111.244 61.7914 110.976 61.6515 110.742 61.4636C110.509 61.2758 110.315 61.0437 110.171 60.7808C110.027 60.5179 109.937 60.2292 109.905 59.9312C109.873 59.6333 109.9 59.3319 109.984 59.0444C110.069 58.7569 110.209 58.4889 110.397 58.2556C110.585 58.0224 110.817 57.8285 111.08 57.6851C111.344 57.5417 111.632 57.4516 111.93 57.4199L216.103 46.2017C216.401 46.1692 216.702 46.1958 216.99 46.2799C217.277 46.364 217.545 46.504 217.779 46.6918C218.012 46.8796 218.206 47.1117 218.35 47.3746C218.494 47.6375 218.584 47.9262 218.616 48.2242C218.649 48.5221 218.622 48.8235 218.537 49.111C218.453 49.3985 218.312 49.6666 218.124 49.8998C217.936 50.133 217.704 50.3269 217.441 50.4703C217.178 50.6137 216.889 50.7038 216.591 50.7355Z" fill="#264B92"/>
<path d="M218.089 64.6499L113.916 75.8681C113.315 75.9328 112.713 75.7561 112.242 75.3767C111.771 74.9974 111.47 74.4465 111.406 73.8453C111.341 73.2441 111.518 72.6418 111.897 72.1709C112.276 71.7 112.827 71.399 113.428 71.3343L217.601 60.1161C218.202 60.0514 218.804 60.2281 219.275 60.6075C219.746 60.9868 220.047 61.5377 220.111 62.1389C220.176 62.7401 219.999 63.3424 219.62 63.8133C219.241 64.2842 218.69 64.5851 218.089 64.6499Z" fill="#264B92"/>
<path d="M127.554 88.4748L115.414 89.7821C114.813 89.8469 114.211 89.6701 113.74 89.2908C113.269 88.9114 112.968 88.3605 112.904 87.7593C112.839 87.1581 113.016 86.5558 113.395 86.0849C113.774 85.614 114.325 85.3131 114.926 85.2484L127.066 83.941C127.364 83.9086 127.665 83.9351 127.953 84.0192C128.24 84.1033 128.509 84.2433 128.742 84.4311C128.976 84.619 129.17 84.851 129.313 85.1139C129.457 85.3769 129.548 85.6656 129.58 85.9635C129.612 86.2615 129.585 86.5628 129.5 86.8503C129.416 87.1378 129.276 87.4059 129.087 87.6391C128.899 87.8724 128.667 88.0662 128.404 88.2096C128.141 88.353 127.852 88.4431 127.554 88.4748Z" fill="#264B92"/>
<path d="M68.2304 52.0193C70.4967 52.0193 72.3339 50.1819 72.3339 47.9152C72.3339 45.6486 70.4967 43.8111 68.2304 43.8111C65.964 43.8111 64.1268 45.6486 64.1268 47.9152C64.1268 50.1819 65.964 52.0193 68.2304 52.0193Z" fill="#3F3D56"/>
<path d="M251.864 31.4988C254.13 31.4988 255.967 29.6613 255.967 27.3947C255.967 25.1281 254.13 23.2906 251.864 23.2906C249.597 23.2906 247.76 25.1281 247.76 27.3947C247.76 29.6613 249.597 31.4988 251.864 31.4988Z" fill="#3F3D56"/>
<path d="M196.385 115.754C196.008 115.423 195.71 115.012 195.511 114.551C195.313 114.09 195.22 113.591 195.238 113.089C195.445 107.128 194.463 101.185 192.351 95.6072C192.172 95.1383 192.099 94.6353 192.139 94.1349C192.178 93.6346 192.329 93.1493 192.58 92.7144C192.82 92.2964 193.148 91.9361 193.543 91.6587C193.937 91.3813 194.387 91.1936 194.861 91.1087C199.631 88.2301 204.521 87.4219 209.397 88.7072C210.184 88.5914 210.985 88.7598 211.659 89.1821C212.332 89.6043 212.833 90.2528 213.072 91.0112C215.046 97.4218 216.144 104.07 216.336 110.775C216.355 111.579 216.082 112.363 215.569 112.983C215.056 113.603 214.337 114.016 213.543 114.148L199.112 116.533C198.628 116.614 198.133 116.586 197.661 116.451C197.189 116.317 196.754 116.079 196.385 115.754Z" fill="#264B92"/>
<path d="M197.667 98.386L209.813 96.3791C209.913 96.3628 210.009 96.327 210.095 96.2737C210.181 96.2204 210.255 96.1506 210.314 96.0684C210.374 95.9862 210.416 95.8932 210.439 95.7946C210.462 95.6961 210.465 95.594 210.449 95.4941C210.432 95.3943 210.396 95.2987 210.343 95.2128C210.289 95.1268 210.219 95.0523 210.137 94.9935C210.055 94.9346 209.961 94.8926 209.863 94.8698C209.764 94.847 209.662 94.8439 209.562 94.8606L197.416 96.8675C197.215 96.9012 197.036 97.0132 196.918 97.179C196.799 97.3448 196.751 97.5508 196.784 97.7519C196.818 97.9529 196.929 98.1326 197.095 98.2515C197.26 98.3704 197.466 98.4187 197.667 98.386Z" fill="white"/>
<path d="M198.67 104.46L210.816 102.453C211.018 102.42 211.198 102.308 211.317 102.142C211.435 101.976 211.483 101.77 211.45 101.568C211.417 101.367 211.305 101.187 211.139 101.068C210.973 100.949 210.767 100.901 210.566 100.934L198.42 102.941C198.32 102.958 198.224 102.993 198.138 103.047C198.052 103.1 197.977 103.17 197.918 103.252C197.859 103.334 197.817 103.427 197.794 103.526C197.771 103.624 197.768 103.726 197.784 103.826C197.801 103.926 197.837 104.022 197.89 104.108C197.944 104.194 198.014 104.268 198.096 104.327C198.178 104.386 198.271 104.428 198.37 104.451C198.469 104.473 198.571 104.477 198.67 104.46Z" fill="white"/>
<path d="M199.674 110.534L211.82 108.527C212.021 108.493 212.201 108.382 212.32 108.216C212.439 108.05 212.487 107.843 212.454 107.642C212.42 107.441 212.308 107.261 212.143 107.142C211.977 107.023 211.77 106.975 211.569 107.008L199.423 109.015C199.323 109.032 199.228 109.068 199.142 109.121C199.056 109.174 198.982 109.244 198.923 109.326C198.864 109.408 198.822 109.501 198.799 109.6C198.776 109.698 198.773 109.8 198.789 109.9C198.806 110 198.842 110.095 198.895 110.181C198.948 110.267 199.018 110.341 199.1 110.4C199.183 110.459 199.275 110.501 199.374 110.524C199.472 110.547 199.574 110.55 199.674 110.534Z" fill="white"/>
</g>
<defs>
<clipPath id="clip0_202_107">
<rect width="375" height="323" fill="white"/>
</clipPath>
</defs>
</svg>
