<svg width="523" height="564" viewBox="0 0 523 564" fill="none" xmlns="http://www.w3.org/2000/svg">
<path d="M241.991 391.355C247.792 380.486 246.558 368.05 238.877 359.573C230.834 350.765 218.594 347.954 209.142 352.789C207.341 353.72 207.052 355.68 207.705 357.2C208.326 358.587 209.738 359.781 211.605 359.114C219.449 356.563 227.684 358.745 233.364 364.773C239.323 371.082 239.975 380.581 235.208 388.817C230.889 396.314 223.663 400.813 214.905 401.349C204.497 402.008 193.52 396.928 186.96 388.456C174.201 371.844 176.049 344.306 190.783 330.76C204.158 318.524 225.339 320.686 239.424 327.875C261.044 338.957 273.448 361.534 284.336 383.644L284.401 383.908C285.351 385.495 287.312 385.785 288.832 385.132C290.301 384.562 291.413 383.101 290.745 381.234C290.63 381.053 290.647 380.838 290.533 380.657L290.551 380.442C276.306 340.678 271.006 303.413 274.976 269.406C277.149 250.606 282.471 232.365 290.254 216.741C299.168 198.881 310.919 184.875 325.257 175.135C342.837 163.2 361.83 159.878 378.526 165.728C379.448 166.061 380.275 165.439 380.592 164.732C380.908 164.024 380.813 163.067 379.858 162.601C364.555 155.011 347.171 156.05 329.468 165.775C315.155 173.619 301.314 186.807 291.373 201.91C280.883 217.917 273.549 236.51 269.619 257.28C266.059 276.138 265.381 296.182 267.535 316.93C268.756 328.459 270.72 339.877 273.526 351.017C264.907 338.151 254.583 326.612 240.264 320.18C230.356 315.748 219.332 313.898 209.268 315.104C197.983 316.467 188.563 321.434 181.999 329.481C180.706 331.057 179.628 332.652 178.582 334.377C167.024 353.445 169.644 381.219 185.292 396.773C193.913 405.37 206.642 409.602 218.522 407.811C228.785 406.278 237.154 400.449 241.991 391.355Z" fill="#5D8DE2"/>
<path d="M221.065 422.726C229.075 423.424 237.952 418.24 243.63 413.14C250.334 407.089 254.439 399.575 255.115 391.78C255.234 390.841 254.694 390.064 253.722 389.812C252.832 389.61 251.594 389.984 251.16 391.069C248.274 398.985 244.623 404.638 239.657 408.934C234.592 413.394 229.211 414.852 223.069 416.636C222.145 416.863 221.303 417.139 220.378 417.365C219.667 417.609 219.123 417.953 218.774 418.528C218.475 419.021 218.39 419.531 218.47 420.142C218.629 421.363 219.482 422.554 221.065 422.726Z" fill="#5D8DE2"/>
<mask id="mask0_204_157" style="mask-type:luminance" maskUnits="userSpaceOnUse" x="232" y="137" width="85" height="120">
<path d="M316.943 148.99L251.817 256.435L232.479 244.714L297.605 137.269L316.943 148.99Z" fill="white"/>
</mask>
<g mask="url(#mask0_204_157)">
<path d="M253.143 254.036C253.969 249.704 254.549 245.223 255.028 240.907C255.713 235.14 256.464 229.077 257.923 223.33C260.472 213.187 264.454 203.464 269.688 194.274C280.386 175.696 295.672 160.124 314.071 149.249C314.749 148.873 314.718 148.181 314.489 147.816C314.227 147.321 313.652 146.972 312.974 147.348C293.742 156.257 276.792 171.607 265.284 190.593C265.135 190.839 264.935 191.168 264.786 191.415C259.139 200.916 254.775 211.084 251.927 221.72C249.631 230.33 246.741 243.076 249.3 254.068C249.477 255.074 250.481 255.458 251.257 255.478C252.345 255.351 252.991 254.843 253.143 254.036Z" fill="#5D8DE2"/>
</g>
</svg>
